<?xml version="1.0" encoding="utf-8"?>
<svg version="1.1" xmlns:xlink="http://www.w3.org/1999/xlink" width="756px" height="6px" xmlns="http://www.w3.org/2000/svg">
  <defs>
    <mask fill="white" id="clip9">
      <path d="M 333.942794279427 6  C 332.262794279427 6  0 4.67999999999995  0 3  C 0 1.32000000000005  332.262794279427 0  333.942794279427 0  L 345.479905437353 0  C 347.159905437353 0  754.634651600755 1.31826741996372  755.76459510358 3  C 756.894538606404 4.68173258003628  347.159905437353 6  345.479905437353 6  L 333.942794279427 6  Z " fill-rule="evenodd" />
    </mask>
  </defs>
  <g transform="matrix(1 0 0 1 -544 -600 )">
    <path d="M 333.942794279427 6  C 332.262794279427 6  0 4.67999999999995  0 3  C 0 1.32000000000005  332.262794279427 0  333.942794279427 0  L 345.479905437353 0  C 347.159905437353 0  754.634651600755 1.31826741996372  755.76459510358 3  C 756.894538606404 4.68173258003628  347.159905437353 6  345.479905437353 6  L 333.942794279427 6  Z " fill-rule="nonzero" fill="#ffffff" stroke="none" transform="matrix(1 0 0 1 544 600 )" />
    <path d="M 333.942794279427 6  C 332.262794279427 6  0 4.67999999999995  0 3  C 0 1.32000000000005  332.262794279427 0  333.942794279427 0  L 345.479905437353 0  C 347.159905437353 0  754.634651600755 1.31826741996372  755.76459510358 3  C 756.894538606404 4.68173258003628  347.159905437353 6  345.479905437353 6  L 333.942794279427 6  Z " stroke-width="2" stroke="#ffffff" fill="none" transform="matrix(1 0 0 1 544 600 )" mask="url(#clip9)" />
  </g>
</svg>